/vscmnt/brussel_pixiu_data/_data_brussel/112/vsc11236/PredSimResults/SUBJ07_Dhondt2024_3seg/weighted/worker_03.mot
version=1
nRows=4
nColumns=124
inDegrees=yes
endheader
                time	         pelvis_tilt	         pelvis_list	     pelvis_rotation	           pelvis_tx	           pelvis_ty	           pelvis_tz	       hip_flexion_r	     hip_adduction_r	      hip_rotation_r	        knee_angle_r	       ankle_angle_r	    subtalar_angle_r	         mtp_angle_r	       hip_flexion_l	     hip_adduction_l	      hip_rotation_l	        knee_angle_l	       ankle_angle_l	    subtalar_angle_l	         mtp_angle_l	    lumbar_extension	      lumbar_bending	     lumbar_rotation	          arm_flex_r	           arm_add_r	           arm_rot_r	        elbow_flex_r	          arm_flex_l	           arm_add_l	           arm_rot_l	        elbow_flex_l	glut_med1_r/activation	glut_med2_r/activation	glut_med3_r/activation	glut_min1_r/activation	glut_min2_r/activation	glut_min3_r/activation	semimem_r/activation	semiten_r/activation	bifemlh_r/activation	bifemsh_r/activation	    sar_r/activation	add_long_r/activation	add_brev_r/activation	add_mag1_r/activation	add_mag2_r/activation	add_mag3_r/activation	    tfl_r/activation	   pect_r/activation	   grac_r/activation	glut_max1_r/activation	glut_max2_r/activation	glut_max3_r/activation	iliacus_r/activation	  psoas_r/activation	quad_fem_r/activation	    gem_r/activation	   peri_r/activation	rect_fem_r/activation	vas_med_r/activation	vas_int_r/activation	vas_lat_r/activation	med_gas_r/activation	lat_gas_r/activation	 soleus_r/activation	tib_post_r/activation	flex_dig_r/activation	flex_hal_r/activation	tib_ant_r/activation	per_brev_r/activation	per_long_r/activation	per_tert_r/activation	ext_dig_r/activation	ext_hal_r/activation	glut_med1_l/activation	glut_med2_l/activation	glut_med3_l/activation	glut_min1_l/activation	glut_min2_l/activation	glut_min3_l/activation	semimem_l/activation	semiten_l/activation	bifemlh_l/activation	bifemsh_l/activation	    sar_l/activation	add_long_l/activation	add_brev_l/activation	add_mag1_l/activation	add_mag2_l/activation	add_mag3_l/activation	    tfl_l/activation	   pect_l/activation	   grac_l/activation	glut_max1_l/activation	glut_max2_l/activation	glut_max3_l/activation	iliacus_l/activation	  psoas_l/activation	quad_fem_l/activation	    gem_l/activation	   peri_l/activation	rect_fem_l/activation	vas_med_l/activation	vas_int_l/activation	vas_lat_l/activation	med_gas_l/activation	lat_gas_l/activation	 soleus_l/activation	tib_post_l/activation	flex_dig_l/activation	flex_hal_l/activation	tib_ant_l/activation	per_brev_l/activation	per_long_l/activation	per_tert_l/activation	ext_dig_l/activation	ext_hal_l/activation	 ercspn_r/activation	 ercspn_l/activation	 intobl_r/activation	 intobl_l/activation	 extobl_r/activation	 extobl_l/activation	
          0.51509671	         -2.92466279	          0.64250228	         -2.95458900	          0.63871992	          0.84594171	          0.00196511	        -17.65468653	          0.67091354	          8.87825913	         -5.72762981	          4.08283493	         12.78266795	         15.28418093	         28.48288885	          2.37788724	          2.13474056	        -10.95591216	          8.64560131	         -2.14711081	          0.23423091	         -6.98143122	          0.30093995	          1.39817439	         22.08080791	        -13.48779463	         19.23384730	         49.70176190	        -24.64679817	        -14.63580388	          3.72289070	         37.10179050	          0.16465092	          0.08400021	          0.05633629	          0.23939767	          0.19822340	          0.13345323	          0.01167782	          0.01000063	          0.01000040	          0.03605912	          0.09102656	          0.01000015	          0.01000002	          0.01000007	          0.01000030	          0.01000024	          0.38964748	          0.01000030	          0.01000026	          0.01609913	          0.01231017	          0.01000108	          0.23072070	          0.43714915	          0.01608593	          0.01608618	          0.05335843	          0.31595770	          0.01000007	          0.01000008	          0.01000007	          0.33161472	          0.37111434	          0.28260451	          0.28041688	          0.35692393	          0.44116534	          0.01588772	          0.09172406	          0.20528553	          0.01428955	          0.01411490	          0.01613176	          0.01372873	          0.01204486	          0.01006923	          0.01000013	          0.01000013	          0.01000021	          0.23231992	          0.05769313	          0.01827723	          0.01000012	          0.01684959	          0.05714516	          0.12498886	          0.09878598	          0.10972405	          0.10321404	          0.01000006	          0.01636265	          0.05976331	          0.01372871	          0.01178115	          0.07567071	          0.01601769	          0.01504871	          0.01585574	          0.01000067	          0.01000020	          0.01000000	          0.08885132	          0.08968178	          0.07551376	          0.01171695	          0.01171689	          0.01171698	          0.01171687	          0.01000019	          0.01018850	          0.28258340	          0.22604109	          0.14491631	          0.08557841	          0.31279132	          0.03562888	          0.00999999	          0.01516935	          0.01000003	          0.03031888	          0.01000001	          0.10385492	
          0.52539864	         -2.91685345	          0.92947747	         -3.13783844	          0.65406440	          0.84530635	          0.00172630	        -17.59067077	          0.33856319	          8.81104576	         -7.59121723	          2.99047583	         13.09641321	         16.42206632	         27.92000420	          2.87251916	          2.16385337	        -10.91466121	          7.74814135	         -2.23756080	          0.23964868	         -6.83237662	         -0.20071302	          1.45365293	         21.72024760	        -13.49947058	         19.07916204	         50.99834036	        -25.47379507	        -14.61744960	          3.60225839	         36.88182372	          0.18847457	          0.07169095	          0.04808086	          0.20431690	          0.16917606	          0.11389721	          0.01000015	          0.01000001	          0.01000000	          0.03077508	          0.07768769	          0.06041613	          0.03464668	          0.01000015	          0.01000022	          0.01000005	          0.33254918	          0.11617943	          0.01008238	          0.01374002	          0.01050629	          0.01000007	          0.19691126	          0.37309001	          0.01372873	          0.01372895	          0.04553937	          0.28015591	          0.01000004	          0.01000005	          0.01000005	          0.28302042	          0.31673184	          0.24694986	          0.26452753	          0.30462113	          0.37660393	          0.01355956	          0.07828297	          0.18162521	          0.01219559	          0.01204653	          0.01376784	          0.01171698	          0.01171696	          0.01000002	          0.01171701	          0.01171699	          0.01171661	          0.19827613	          0.04923888	          0.01559892	          0.01000004	          0.01438051	          0.04877129	          0.10667342	          0.22598212	          0.19470923	          0.12309130	          0.01000034	          0.01874486	          0.05100574	          0.01171694	          0.01005476	          0.07835355	          0.01608594	          0.01608569	          0.17547429	          0.01000005	          0.01000002	          0.01372877	          0.12421080	          0.10711051	          0.09877062	          0.00999999	          0.00999999	          0.00999999	          0.00999999	          0.01000002	          0.01000001	          0.29070711	          0.19291755	          0.12922115	          0.10293034	          0.34330807	          0.03040797	          0.01653575	          0.01294646	          0.02801545	          0.02587600	          0.01109664	          0.08863618	
          0.53570058	         -2.90553789	          1.22190812	         -3.30511387	          0.66960783	          0.84464789	          0.00149609	        -17.41120796	          0.01877694	          8.72811619	         -9.65401197	          1.71191286	         13.39590350	         17.53156264	         27.33690855	          3.34063129	          2.23027776	        -11.42866467	          6.52564939	         -2.29991509	          0.24158357	         -6.67532915	         -0.71283384	          1.49965430	         21.24715299	        -13.51630614	         18.89573000	         52.23170237	        -26.09320484	        -14.60009768	          3.68330396	         36.26484601	          0.16085582	          0.06118547	          0.04103517	          0.17437665	          0.14438528	          0.09720689	          0.01213372	          0.01000031	          0.01171692	          0.02626535	          0.06630347	          0.08575904	          0.17211101	          0.01171701	          0.01171718	          0.01172095	          0.28381796	          0.09915479	          0.01001368	          0.01172663	          0.01171674	          0.01171689	          0.16805620	          0.31841800	          0.01171698	          0.01171715	          0.03886611	          0.23910232	          0.03283706	          0.02157037	          0.01171753	          0.24154706	          0.27031846	          0.21076222	          0.22576410	          0.25998246	          0.32141701	          0.01157256	          0.06681153	          0.19079143	          0.01040847	          0.01028125	          0.01175033	          0.01000000	          0.01000000	          0.01000007	          0.01000002	          0.01000002	          0.01000001	          0.16922106	          0.04202353	          0.06018377	          0.01000006	          0.01227327	          0.04162445	          0.16684612	          0.19286713	          0.16617691	          0.11808412	          0.01000003	          0.01599888	          0.11015270	          0.01000009	          0.09271581	          0.06687182	          0.01372875	          0.01372873	          0.18656455	          0.01609136	          0.01065992	          0.01171699	          0.10600916	          0.09141472	          0.08429694	          0.01476651	          0.01608599	          0.01375936	          0.01378617	          0.01171705	          0.01385304	          0.24810736	          0.18457181	          0.13919517	          0.08784709	          0.36831554	          0.02595204	          0.03337753	          0.01104931	          0.02559470	          0.02208417	          0.01372879	          0.07564758	
          0.54600251	         -2.89245679	          1.53250851	         -3.45292721	          0.68521383	          0.84402688	          0.00128685	        -17.08539578	         -0.29472678	          8.62529403	        -11.94008182	          0.21510517	         13.65014813	         18.55491206	         26.71553053	          3.77011943	          2.34630828	        -12.06848867	          5.20548984	         -2.34837908	          0.24024605	         -6.51925451	         -1.24795718	          1.53522905	         20.69015859	        -13.53281024	         18.70804541	         53.36312751	        -26.47697730	        -14.59212372	          3.97663142	         35.25345316	          0.18871984	          0.05221945	          0.03502194	          0.24972169	          0.12322730	          0.08296235	          0.01671382	          0.01000004	          0.01000002	          0.02241647	          0.05658747	          0.09371584	          0.14689016	          0.01000006	          0.01000028	          0.01000344	          0.24222786	          0.08462494	          0.01000007	          0.01000827	          0.01000006	          0.01000006	          0.14342951	          0.27175754	          0.01000000	          0.01000016	          0.03317073	          0.22959718	          0.02802518	          0.01840949	          0.01000048	          0.20615113	          0.23070642	          0.17987746	          0.19268099	          0.22188505	          0.27431708	          0.00999999	          0.09565306	          0.17810899	          0.01000002	          0.01000000	          0.01002847	          0.24977086	          0.26471099	          0.25661794	          0.22911688	          0.11460908	          0.08434384	          0.14442368	          0.07431075	          0.05136456	          0.01372880	          0.01047480	          0.03552488	          0.14239678	          0.16460475	          0.14182574	          0.13468026	          0.01000010	          0.01365451	          0.09401128	          0.21701598	          0.15976686	          0.10703185	          0.01171697	          0.01171696	          0.15922570	          0.01373338	          0.01000008	          0.01000001	          0.09047478	          0.07801898	          0.07194422	          0.01260265	          0.01372877	          0.01174308	          0.01176597	          0.01000006	          0.01182304	          0.43176673	          0.31141225	          0.15204713	          0.45923922	          0.48155209	          0.27063674	          0.07480009	          0.03871096	          0.02184409	          0.01884799	          0.01171700	          0.06456230	
